<?xml version="1.0" standalone="no"?>
<!DOCTYPE svg PUBLIC "-//W3C//DTD SVG 20010904//EN"
 "http://www.w3.org/TR/2001/REC-SVG-20010904/DTD/svg10.dtd">
<svg version="1.0" xmlns="http://www.w3.org/2000/svg"
 width="961.000000pt" height="961.000000pt" viewBox="0 0 961.000000 961.000000"
 preserveAspectRatio="xMidYMid meet">
<metadata>
Created by potrace 1.11, written by Peter Selinger 2001-2013
</metadata>
<g transform="translate(0.000000,961.000000) scale(0.100000,-0.100000)"
fill="#000000" stroke="none">
<path d="M500 5750 l0 -3460 1292 0 1293 0 857 -857 858 -858 858 858 857 857
1293 0 1292 0 0 3460 0 3460 -4300 0 -4300 0 0 -3460z m4650 905 l0 -1725
-350 0 -350 0 0 1725 0 1725 350 0 350 0 0 -1725z m0 -3055 l0 -360 -350 0
-350 0 0 360 0 360 350 0 350 0 0 -360z"/>
</g>
</svg>
