<?xml version="1.0" standalone="no"?>
<!DOCTYPE svg PUBLIC "-//W3C//DTD SVG 20010904//EN"
 "http://www.w3.org/TR/2001/REC-SVG-20010904/DTD/svg10.dtd">
<svg version="1.0" xmlns="http://www.w3.org/2000/svg"
 width="1000.000000pt" height="1000.000000pt" viewBox="0 0 1000.000000 1000.000000"
 preserveAspectRatio="xMidYMid meet">
<metadata>
Created by potrace 1.11, written by Peter Selinger 2001-2013
</metadata>
<g transform="translate(0.000000,1000.000000) scale(0.100000,-0.100000)"
fill="#000000" stroke="none">
<path d="M500 5840 l0 -3660 1347 0 1348 0 902 -902 903 -903 903 903 902 902
1348 0 1347 0 0 3660 0 3660 -4500 0 -4500 0 0 -3660z m4850 905 l0 -1725
-350 0 -350 0 0 1725 0 1725 350 0 350 0 0 -1725z m0 -3055 l0 -360 -350 0
-350 0 0 360 0 360 350 0 350 0 0 -360z"/>
</g>
</svg>
