<?xml version="1.0" standalone="no"?>
<!DOCTYPE svg PUBLIC "-//W3C//DTD SVG 20010904//EN"
 "http://www.w3.org/TR/2001/REC-SVG-20010904/DTD/svg10.dtd">
<svg version="1.0" xmlns="http://www.w3.org/2000/svg"
 width="400.000000pt" height="400.000000pt" viewBox="0 0 400.000000 400.000000"
 preserveAspectRatio="xMidYMid meet">
<metadata>
Created by potrace 1.11, written by Peter Selinger 2001-2013
</metadata>
<g transform="translate(0.000000,400.000000) scale(0.100000,-0.100000)"
fill="#000000" stroke="none">
<path d="M0 2000 l0 -2000 1600 0 1600 0 0 597 0 598 402 402 403 403 -403
403 -402 402 0 598 0 597 -1600 0 -1600 0 0 -2000z m3100 1338 l0 -563 387
-387 388 -388 -388 -388 -387 -387 0 -563 0 -562 -1500 0 -1500 0 0 1900 0
1900 1500 0 1500 0 0 -562z"/>
<path d="M1495 3133 c-46 -24 -76 -54 -96 -98 -17 -38 -19 -80 -19 -698 0
-571 2 -663 15 -695 69 -163 301 -163 370 0 13 32 15 124 15 693 0 708 1 696
-53 753 -55 59 -166 80 -232 45z m145 -121 c23 -23 29 -41 35 -93 3 -35 5
-324 3 -641 -3 -568 -3 -577 -24 -605 -12 -15 -33 -32 -48 -37 -35 -13 -73 2
-100 37 -21 28 -21 37 -24 605 -2 317 0 606 3 641 8 78 42 121 95 121 21 0 41
-9 60 -28z"/>
<path d="M1515 1250 c-42 -13 -99 -63 -119 -104 -18 -39 -21 -131 -5 -173 26
-69 109 -123 189 -123 80 0 163 54 189 123 19 49 13 138 -12 182 -45 80 -154
123 -242 95z m105 -115 c35 -18 50 -43 50 -85 0 -43 -47 -90 -90 -90 -43 0
-90 47 -90 90 0 41 14 66 48 84 35 19 46 19 82 1z"/>
</g>
</svg>
