<svg class="cover_grafik face" xmlns="http://www.w3.org/2000/svg" viewBox="0 0 1000 1000" >
  <style>
    .speakOne{
      fill:#FFFFFF;
      stroke:#000000;
      stroke-width:18;
      stroke-linecap:round;
      stroke-linejoin:round;
      stroke-miterlimit:10;
    }
    .speakThin{
      fill:none;
      stroke:#000000;
      stroke-width:5.6333;
      stroke-linecap:round;
      stroke-linejoin:round;
      stroke-miterlimit:10;
    }
  </style>
  <path id="face" class="speakOne" d="
    M866.3,585.3c0,201.1-163,364.1-364.1,364.1c-201.1,0-364.1-163-364.1-364.1s163-353.5,364.1-353.5 C703.4,231.8,866.3,384.2,866.3,585.3z"/>
  <path id="mouth" class="speakOne" d=" 	M341.4,716.8C354.5,779,462.8,843,545.9,813.9"/>
  <!-- <g id="eyes">
      <path id="eye2" class="speakOne" d="
      M423.1,551.6c0,30.9-25.1,56-56,56c-30.9,0-56-25.1-56-56c0-30.9,25.1-56,56-56C398,495.5,423.1,520.6,423.1,551.6z"/>

      <path id="eye1" class="speakOne" d="
      M688.9,551.6c0,30.9-25.1,56-56,56c-30.9,0-56-25.1-56-56c0-30.9,25.1-56,56-56C663.9,495.5,688.9,520.6,688.9,551.6z"/>
  </g> -->
  <g id="hat">

      <path id="screen_1_" class="speakOne"  d="
      M109.2,658c9.3,15.1,11.3,46,36.3,34.3c137.4-101.3,353.4-96.8,353.4-96.8s215.7-7,366.7,119.2c11.9,9,0.8-19.8,27-44 c-51.8-31-83.5-260.3-81.8-474.5c-0.1-139.1-186-139.1-314-139.1c-97.7,0.1-283.1-7.1-285.8,139.1C243.5,491.8,142,630.6,109.2,658 z"/>

      <path id="front" class="speakOne" d=" M179.2,386.2C127,0,212.4,94,496.7,94S917,0,847.3,463.9c-64.1,42.6-262.3,97-422.9,45.5C175.2,429.6,185,429.4,179.2,386.2z"/>

      <path id="screen" class="speakOne" d="
      M178.3,421.3C115,503,64.2,710.4,145.5,657.9C282.9,569,502.3,569,502.3,569s196.6,0,345,98c97.9,64.6,40.9-159.9,0-245.7 C687.6,474.3,277.6,467.5,178.3,421.3z"/>

      <path id="sponsor" d="M322,154.5c-2,0-3.8,0.7-5.1,2.1c-1.4,1.4-2.1,3.2-2.1,5.1v59c0,4.3-1.5,7.9-4.5,10.9c-3,3-6.6,4.5-10.9,4.5 c-4.3,0-7.9-1.5-10.9-4.5c-3-3-4.5-6.6-4.5-10.9c0-2-0.7-3.8-2.1-5.2c-1.4-1.4-3.2-2.1-5.1-2.1c-2,0-3.8,0.7-5.1,2.1 c-1.4,1.4-2.1,3.2-2.1,5.1c0,8.2,3,15.4,8.8,21.2c5.8,5.8,13,8.8,21.2,8.8c8.2,0,15.4-3,21.2-8.8c5.8-5.8,8.8-13,8.8-21.2v-59 c0-2-0.7-3.7-2.1-5.2C325.7,155.3,323.9,154.5,322,154.5z M370.8,250.8c9.5,0,17.7-3.4,24.4-10.1c6.7-6.7,10.1-14.9,10.1-24.4 v-54.5c0-2-0.7-3.7-2.1-5.2c-1.4-1.4-3.2-2.1-5.1-2.1s-3.7,0.7-5.1,2.1c-1.4,1.4-2.1,3.2-2.1,5.1v54.5c0,5.6-1.9,10.2-5.8,14.1 c-3.9,3.9-8.5,5.8-14.1,5.8c-5.6,0-10.2-1.9-14.1-5.8c-3.9-3.9-5.8-8.5-5.8-14.1v-54.5c0-2-0.7-3.8-2.1-5.2 c-1.4-1.4-3.2-2.1-5.1-2.1c-2,0-3.8,0.7-5.1,2.1c-1.4,1.4-2.1,3.2-2.1,5.1v54.5c0,9.5,3.4,17.7,10.1,24.4 C353.1,247.4,361.4,250.8,370.8,250.8z M477.8,248.5c1.5,1.5,3.3,2.3,5.4,2.3c2,0,3.8-0.7,5.1-2.1c1.4-1.4,2.1-3.2,2.1-5.1v-81.7 c0-2-0.7-3.8-2.1-5.2c-1.4-1.4-3.2-2.1-5.1-2.1c-2,0-3.7,0.7-5.1,2.1c-1.4,1.4-2.1,3.2-2.1,5.1v60.4l-50.6-65l-0.1-0.1 c-1.5-1.7-3.4-2.6-5.6-2.6c-2,0-3.8,0.7-5.1,2.1c-1.4,1.4-2.1,3.2-2.1,5.1v81.7c0,2,0.7,3.8,2.1,5.1c1.4,1.4,3.2,2.1,5.2,2.1 c2,0,3.8-0.7,5.1-2.1c1.4-1.4,2.1-3.2,2.1-5.1v-60.4l50.7,65.1L477.8,248.5z M545.7,250.8c11.2,0,21.4-3.6,30.2-10.7l0.2-0.2 c1.4-1.4,2.1-3.2,2.1-5.1v-27.6c0-1.9-0.7-3.7-2.1-5.1l-0.1-0.1c-1.4-1.4-3.2-2.1-5.1-2.1h-22.5c-2,0-3.8,0.7-5.1,2.1 c-1.4,1.4-2.1,3.2-2.1,5.1c0,2,0.7,3.8,2.1,5.1c1.4,1.4,3.2,2.1,5.2,2.1h15.2V231c-5.2,3.4-11.3,5.2-18,5.2 c-9.3,0-17.1-3.2-23.7-9.8c-6.6-6.6-9.8-14.4-9.8-23.7c0-9.3,3.2-17.1,9.8-23.7c6.6-6.6,14.4-9.8,23.7-9.8c7.9,0,14.7,2.3,20.6,7 c1.4,1.3,3.1,2,5.1,2c2,0,3.8-0.7,5.1-2.1s2.1-3.2,2.1-5.1c0-1.9-0.7-3.7-2.1-5.1l-0.2-0.2c-8.9-7.3-19.2-11-30.6-11 c-13.2,0-24.7,4.7-34,14.1c-9.4,9.4-14.1,20.8-14.1,34c0,13.2,4.7,24.7,14.1,34C521,246,532.5,250.8,545.7,250.8z M643.3,236.2 h-42.6v-74.4c0-2-0.7-3.7-2.1-5.2c-1.4-1.4-3.2-2.1-5.1-2.1c-2,0-3.7,0.7-5.1,2.1c-1.4,1.4-2.1,3.2-2.1,5.1v81.7 c0,2,0.7,3.8,2.1,5.1c1.4,1.4,3.2,2.1,5.1,2.1h49.9c2,0,3.8-0.7,5.2-2.1c1.4-1.4,2.1-3.2,2.1-5.1c0-2-0.7-3.7-2.1-5.2 C647.1,236.9,645.3,236.2,643.3,236.2z M719.4,250.8c2,0,3.7-0.7,5.1-2.1c1.4-1.4,2.1-3.2,2.1-5.1c0-2-0.7-3.8-2.1-5.2 c-1.4-1.4-3.2-2.1-5.1-2.1h-47.2v-26.3h33.6c2,0,3.8-0.7,5.1-2.1c1.4-1.4,2.1-3.2,2.1-5.2c0-2-0.7-3.7-2.1-5.1 c-1.4-1.4-3.2-2.1-5.1-2.1h-33.6v-26.3h47.2c2,0,3.7-0.7,5.1-2.1c1.4-1.4,2.1-3.2,2.1-5.1c0-2-0.7-3.8-2.1-5.2 c-1.4-1.4-3.2-2.1-5.1-2.1H665c-2,0-3.7,0.7-5.2,2.1c-1.4,1.4-2.1,3.2-2.1,5.1v81.7c0,2,0.7,3.8,2.1,5.1c1.4,1.4,3.2,2.1,5.2,2.1 H719.4z M284.1,321.6c-4.6-0.4-8.4-2.3-11.4-5.9c-3.1-3.6-4.4-7.6-4-12.3c0.4-4.6,2.3-8.4,5.9-11.4c3.6-3.1,7.7-4.4,12.3-4 c4.6,0.4,8.4,2.3,11.4,5.9c1,1.3,2,2.7,3,3.9c1,1.4,3.1,3.1,6.8,3.1c2.5,0,4.8-0.9,6.6-2.7c1.8-1.8,2.7-4.1,2.7-6.6 c0-1.8-0.5-3.5-1.4-5c-1-1.6-2.2-3.2-3.5-4.8c-7.6-8.4-16.7-12.6-26.9-12.6c-8.7,0-16.4,2.9-23.1,8.6c-7.4,6.3-11.6,14.4-12.4,24.2 c-0.8,9.8,2,18.5,8.3,25.9c6.3,7.4,14.4,11.6,24.2,12.4c6.6,0.5,11.8,3.2,16,8.2c4.2,5,6,10.6,5.5,17.1c-0.5,6.5-3.2,11.7-8.2,15.9 c-4.5,3.8-9.4,5.6-15.1,5.6c-0.7,0-1.3,0-2-0.1c-6.6-0.5-11.8-3.2-16-8.3l-0.1-0.1c-0.7-0.8-1.4-1.6-2-2.6 c-1.9-2.8-4.6-4.2-7.8-4.2c-2.5,0-4.8,0.9-6.6,2.7c-1.8,1.8-2.7,4-2.7,6.6c0,2,0.6,3.9,1.8,5.5c1,1.5,2.1,2.9,3.3,4.3 c9,9.8,19.9,14.8,32.3,14.8c10,0,19.1-3.4,26.9-10.1c8.8-7.4,13.7-17.1,14.6-28.6c0.1-1.3,0.2-2.7,0.2-4c0-9.9-3.3-18.9-9.9-26.7 C305.3,327.5,295.7,322.6,284.1,321.6z M370.9,269.1h-26.2c-2.5,0-4.8,0.9-6.6,2.7c-1.8,1.8-2.7,4.1-2.7,6.6v118 c0,2.5,0.9,4.8,2.7,6.6c1.8,1.8,4.1,2.7,6.6,2.7c2.6,0,4.8-0.9,6.6-2.7c1.8-1.8,2.7-4.1,2.7-6.6v-36.6h16.9 c12.4,0,23.2-4.5,32.1-13.3s13.3-19.6,13.3-32.1c0-12.4-4.5-23.2-13.3-32.1C394.1,273.5,383.4,269.1,370.9,269.1z M389.8,333.3 c-5.3,5.3-11.5,7.8-18.9,7.8H354v-53.5h16.9c7.4,0,13.6,2.6,18.9,7.8c5.3,5.3,7.8,11.5,7.8,18.9 C397.7,321.9,395.1,328.1,389.8,333.3z M516.9,287.7c2.5,0,4.8-0.9,6.6-2.7c1.8-1.8,2.7-4.1,2.7-6.6c0-2.5-0.9-4.8-2.7-6.6 c-1.8-1.8-4.1-2.7-6.6-2.7h-78.7c-2.5,0-4.8,0.9-6.6,2.7c-1.8,1.8-2.7,4.1-2.7,6.6v118c0,2.5,0.9,4.8,2.7,6.6 c1.8,1.8,4.1,2.7,6.6,2.7h78.7c2.6,0,4.8-0.9,6.6-2.7c1.8-1.8,2.7-4.1,2.7-6.6c0-2.5-0.9-4.8-2.7-6.6c-1.8-1.8-4-2.7-6.6-2.7h-69.3 v-40.4h49.7c2.5,0,4.8-0.9,6.6-2.7c1.8-1.8,2.7-4.1,2.7-6.6c0-2.5-0.9-4.8-2.7-6.6c-1.8-1.8-4-2.7-6.6-2.7h-49.7v-40.4H516.9z  M602.9,275.5c-0.5-1.3-1.2-2.6-2.2-3.6l-0.1-0.1c-1.8-1.8-4-2.6-6.6-2.6c-2.5,0-4.8,0.9-6.5,2.7c-1.1,1.1-1.9,2.3-2.4,3.7 l-45.5,117c-0.5,1.2-0.8,2.5-0.8,3.9c0,2.5,0.9,4.8,2.7,6.6c1.8,1.8,4.1,2.7,6.6,2.7c2.5,0,4.7-0.9,6.6-2.6l0.1-0.1 c0.8-0.9,1.4-1.9,1.9-3l15.6-40.1h43.3l15.7,40.2c0.5,1.1,1.2,2.1,2.1,3c1.8,1.8,4,2.7,6.5,2.7c2.5,0,4.8-0.9,6.6-2.7 c1.8-1.8,2.7-4.1,2.7-6.6c0-1.4-0.3-2.7-0.8-3.9L602.9,275.5z M579.6,341.2l14.4-37.1l14.4,37.1H579.6z M705.5,329.4l44.4-44.4 c1.8-1.8,2.6-4,2.6-6.6c0-2.5-0.9-4.8-2.7-6.6c-1.8-1.8-4.1-2.7-6.6-2.7c-2.5,0-4.8,0.9-6.8,2.9l-56,56v-49.6 c0-2.5-0.9-4.8-2.7-6.6c-1.8-1.8-4.1-2.7-6.6-2.7c-2.5,0-4.8,0.9-6.6,2.7c-1.8,1.8-2.7,4.1-2.7,6.6v118c0,2.5,0.9,4.8,2.7,6.6 c1.8,1.8,4.1,2.7,6.6,2.7c2.5,0,4.8-0.9,6.6-2.7c1.8-1.8,2.7-4.1,2.7-6.6v-42l11.7-11.7l43.5,59c1.8,2.6,4.5,3.9,7.8,3.9 c1.9,0,3.7-0.6,5.5-1.9c2.4-1.9,3.7-4.5,3.7-7.7c0-1.9-0.6-3.7-1.8-5.3L705.5,329.4z"/>

      <path id="screen-dots1" class="speakThin" d="
      M238.2,438.6c-13.1,22.9-51.6,97.3-26.7,110.7c20.8,11.2,70.4-32.3,287.4-32.3s267.2,50.8,296.5,32.9c8.4-5.1,5.2-49.2-30.9-103.5"
      />

      <path id="screen-dots2" class="speakThin" d="
      M220,434.7c-60.3,111-57.7,144.2-48.3,150.5c23.7,15.7,80.7-54.1,327.2-54.1s298.3,78.3,328.1,48.5
      c21.2-21.2-44.8-151.7-40.6-143.1"/>

      <path id="screen-dots3" class="speakThin" d="
      M201.8,430.7c-22.7,47.6-93.4,161.7-57.1,189.2c25.6,19.4,87.7-72.8,354.2-72.8s328,105.9,361.8,71.9
      c22.3-22.4-38.9-168.2-46.7-188.2"/>

      <ellipse id="button" class="speakOne" cx="496.7" cy="57.2" rx="26.1" ry="14.8"/>
  </g>
</svg>
