<svg xmlns="http://www.w3.org/2000/svg" viewBox="0 0 100 1000">
  <style>
    .st1{ stroke:#40FF00; stroke-width:10pt; stroke-linejoin:round; } 
    .st2{font-size:800pt;} 
    .st3{fill:#40FF00;}
  </style>
  <path d="M940.4 60v880h-704V676l-176-176 176-176V60h704m0-1h-704c-.6 0-1 .4-1 1v263.6L59.7 499.3c-.4.4-.4 1 0 1.4l175.7 175.7V940c0 .6.4 1 1 1h704c.6 0 1-.4 1-1V60c0-.6-.4-1-1-1zM592.7 171.9c16.6 0 31.7 7.4 42.6 20.6 9.4 11.7 14.6 26.3 14.6 42.3v338.9c0 8-1.4 15.7-4.3 23.2-2.9 7.1-6.6 13.7-11.2 19.2-4.9 6-11.2 10.9-18 14.3-7.4 3.7-15.4 5.7-23.7 5.7-8.9 0-17.2-2-24.6-6-6.6-3.4-12.6-8.3-17.4-14-4.9-5.4-8.6-12-11.2-19.2-2.6-7.2-4-14.6-4-22.6V234.6c0-16 5.1-30.6 14.6-42.3 10.9-13.2 26.1-20.4 42.6-20.4m0-1c-17 0-32.4 7.3-43.4 20.7-9.7 12-14.8 26.9-14.8 43v339.8c0 7.8 1.3 15.3 4.1 22.9 2.7 7.6 6.5 14.1 11.3 19.5 5 5.9 11.1 10.8 17.7 14.2 7.5 4.1 16 6.1 25.1 6.1 8.3 0 16.5-2 24.2-5.8 7.2-3.6 13.6-8.6 18.3-14.6 4.5-5.3 8.3-11.8 11.3-19.4 2.9-7.5 4.4-15.4 4.4-23.5v-339c0-16.1-5.1-30.9-14.8-43-11.1-13.4-26.5-20.9-43.4-20.9zm0 542.7c7.7 0 15.4 1.4 23.2 4.6 6.6 2.9 12.6 6.9 17.7 12 5.1 5.4 9.4 11.4 12.3 18.3 3.1 7.2 4.6 14.6 4.6 22.3 0 8-1.7 15.7-4.9 22.9-3.1 6.9-7.4 12.9-12.6 18-5.1 5.1-11.2 9.2-18 12-7.2 3.1-14.6 4.6-22 4.6-7.7 0-15.4-1.7-22.3-4.6-6.6-2.9-12.6-6.9-17.7-11.7-5.4-5.1-9.4-11.2-12.6-18-3.1-7.2-4.9-14.9-4.9-22.9 0-7.7 1.7-15.4 4.6-22.3 2.9-6.9 7.1-13.2 12.3-18.3 5.1-4.9 10.9-9.2 17.7-12 7.2-3.2 14.9-4.9 22.6-4.9m0-1c-7.7 0-15.6 1.7-23 4.9-6.2 2.6-11.9 6.5-18 12.2-5.4 5.4-9.7 11.8-12.5 18.6-3 7.3-4.7 15.2-4.7 22.7 0 8 1.7 15.8 4.9 23.3 3.4 7.4 7.6 13.4 12.8 18.3 5.3 5 11.4 9 18 11.9 7.3 3 15.2 4.7 22.7 4.7 7.9 0 15.4-1.6 22.4-4.7 6.9-2.9 13.1-7 18.3-12.2 5.4-5.4 9.7-11.5 12.8-18.3 3.3-7.5 5-15.3 5-23.3s-1.6-15.7-4.7-22.7c-2.7-6.5-6.8-12.6-12.5-18.6-5.2-5.2-11.2-9.3-18.1-12.2-7.4-3-15.3-4.6-23.4-4.6z" class="st1" shape-rendering="geometricPrecision"/>
  <text transform="translate(-3300 900)" class="st3 st2">
    SPEAK
  </text>
</svg>
