<?xml version="1.0" encoding="utf-8"?>
<!-- Generator: Adobe Illustrator 15.0.2, SVG Export Plug-In . SVG Version: 6.00 Build 0)  -->
<!DOCTYPE svg PUBLIC "-//W3C//DTD SVG 1.1//EN" "http://www.w3.org/Graphics/SVG/1.1/DTD/svg11.dtd" [
	<!ENTITY st0 "font-family:'MyriadPro-Regular';">
	<!ENTITY st1 "stroke:#40FF00;stroke-width:10;stroke-linejoin:round;">
	<!ENTITY st2 "font-size:1267.0996;">
	<!ENTITY st3 "fill:#40FF00;">
]>
<svg version="1.1" id="Layer_1" xmlns="http://www.w3.org/2000/svg" xmlns:xlink="http://www.w3.org/1999/xlink" x="0px" y="0px"
	 width="1000px" height="1000px" viewBox="0 0 1000 1000" style="enable-background:new 0 0 1000 1000;" xml:space="preserve">
<g shape-rendering="geometricPrecision">
	<path style="&st1;" d="M940.4,60v880h-704V676l-176-176l176-176V60H940.4 M940.4,59h-704c-0.6,0-1,0.4-1,1v263.6L59.7,499.3
		c-0.4,0.4-0.4,1,0,1.4l175.7,175.7V940c0,0.6,0.4,1,1,1h704c0.6,0,1-0.4,1-1V60C941.4,59.4,941,59,940.4,59z M592.7,171.9
		c16.6,0,31.7,7.4,42.6,20.6c9.4,11.7,14.6,26.3,14.6,42.3v338.9c0,8-1.4,15.7-4.3,23.2c-2.9,7.1-6.6,13.7-11.2,19.2
		c-4.9,6-11.2,10.9-18,14.3c-7.4,3.7-15.4,5.7-23.7,5.7c-8.9,0-17.2-2-24.6-6c-6.6-3.4-12.6-8.3-17.4-14c-4.9-5.4-8.6-12-11.2-19.2
		c-2.6-7.2-4-14.6-4-22.6V234.6c0-16,5.1-30.6,14.6-42.3C561,179.1,576.2,171.9,592.7,171.9 M592.7,170.9c-17,0-32.4,7.3-43.4,20.7
		c-9.7,12-14.8,26.9-14.8,43v339.8c0,7.8,1.3,15.3,4.1,22.9c2.7,7.6,6.5,14.1,11.3,19.5c5,5.9,11.1,10.8,17.7,14.2
		c7.5,4.1,16,6.1,25.1,6.1c8.3,0,16.5-2,24.2-5.8c7.2-3.6,13.6-8.6,18.3-14.6c4.5-5.3,8.3-11.8,11.3-19.4c2.9-7.5,4.4-15.4,4.4-23.5
		v-339c0-16.1-5.1-30.9-14.8-43C625,178.4,609.6,170.9,592.7,170.9L592.7,170.9z M592.7,713.6c7.7,0,15.4,1.4,23.2,4.6
		c6.6,2.9,12.6,6.9,17.7,12c5.1,5.4,9.4,11.4,12.3,18.3c3.1,7.2,4.6,14.6,4.6,22.3c0,8-1.7,15.7-4.9,22.9c-3.1,6.9-7.4,12.9-12.6,18
		c-5.1,5.1-11.2,9.2-18,12c-7.2,3.1-14.6,4.6-22,4.6c-7.7,0-15.4-1.7-22.3-4.6c-6.6-2.9-12.6-6.9-17.7-11.7
		c-5.4-5.1-9.4-11.2-12.6-18c-3.1-7.2-4.9-14.9-4.9-22.9c0-7.7,1.7-15.4,4.6-22.3c2.9-6.9,7.1-13.2,12.3-18.3
		c5.1-4.9,10.9-9.2,17.7-12C577.3,715.3,585,713.6,592.7,713.6 M592.7,712.6c-7.7,0-15.6,1.7-23,4.9c-6.2,2.6-11.9,6.5-18,12.2
		c-5.4,5.4-9.7,11.8-12.5,18.6c-3,7.3-4.7,15.2-4.7,22.7c0,8,1.7,15.8,4.9,23.3c3.4,7.4,7.6,13.4,12.8,18.3c5.3,5,11.4,9,18,11.9
		c7.3,3,15.2,4.7,22.7,4.7c7.9,0,15.4-1.6,22.4-4.7c6.9-2.9,13.1-7,18.3-12.2c5.4-5.4,9.7-11.5,12.8-18.3c3.3-7.5,5-15.3,5-23.3
		s-1.6-15.7-4.7-22.7c-2.7-6.5-6.8-12.6-12.5-18.6c-5.2-5.2-11.2-9.3-18.1-12.2C608.7,714.2,600.8,712.6,592.7,712.6L592.7,712.6z"
		/>
</g>
<text transform="matrix(1 0 0 1 -3435.5283 920.0283)" style="&st3; &st0; &st2;">SPEAK</text>
</svg>
