
<svg version="1.1" id="Layer_1" xmlns="http://www.w3.org/2000/svg" xmlns:xlink="http://www.w3.org/1999/xlink" viewBox="0 0 100 1000" enable-background="new 0 0 1000 1000" xml:space="preserve">
<g shape-rendering="geometricPrecision">
	<path stroke="#40FF00" stroke-width="10" stroke-linejoin="round" d="M940.4,60v880h-704V676l-176-176l176-176V60H940.4 M940.4,59
		h-704c-0.6,0-1,0.4-1,1v263.6L59.7,499.3c-0.4,0.4-0.4,1,0,1.4l175.7,175.7V940c0,0.6,0.4,1,1,1h704c0.6,0,1-0.4,1-1V60
		C941.4,59.4,941,59,940.4,59z M592.7,171.9c16.6,0,31.7,7.4,42.6,20.6c9.4,11.7,14.601,26.3,14.601,42.3v338.9
		c0,8-1.4,15.7-4.301,23.2C642.7,604,639,610.6,634.4,616.1c-4.9,6-11.2,10.9-18,14.301C609,634.1,601,636.1,592.7,636.1
		c-8.9,0-17.2-2-24.601-6c-6.6-3.399-12.6-8.3-17.399-14c-4.9-5.399-8.601-12-11.2-19.199c-2.6-7.2-4-14.601-4-22.601V234.6
		c0-16,5.1-30.6,14.6-42.3C561,179.1,576.2,171.9,592.7,171.9 M592.7,170.9c-17,0-32.4,7.3-43.4,20.7c-9.7,12-14.8,26.9-14.8,43
		v339.8c0,7.8,1.3,15.3,4.1,22.899c2.7,7.601,6.5,14.101,11.3,19.5c5,5.9,11.101,10.8,17.7,14.2c7.5,4.1,16,6.1,25.101,6.1
		c8.3,0,16.5-2,24.199-5.8c7.2-3.6,13.601-8.6,18.301-14.6c4.5-5.3,8.3-11.8,11.3-19.4c2.899-7.5,4.399-15.399,4.399-23.5v-339
		c0-16.1-5.1-30.9-14.8-43C625,178.4,609.6,170.9,592.7,170.9L592.7,170.9z M592.7,713.6c7.7,0,15.399,1.4,23.2,4.601
		c6.6,2.899,12.6,6.899,17.699,12C638.7,735.6,643,741.6,645.9,748.5c3.1,7.2,4.6,14.6,4.6,22.3c0,8-1.7,15.7-4.9,22.9
		c-3.1,6.899-7.399,12.899-12.6,18c-5.1,5.1-11.2,9.2-18,12c-7.2,3.1-14.6,4.6-22,4.6c-7.7,0-15.4-1.7-22.3-4.6
		c-6.601-2.9-12.601-6.9-17.7-11.7c-5.4-5.1-9.4-11.2-12.6-18c-3.101-7.2-4.9-14.9-4.9-22.9c0-7.699,1.7-15.399,4.6-22.3
		c2.9-6.899,7.101-13.2,12.301-18.3c5.1-4.9,10.899-9.2,17.699-12C577.3,715.3,585,713.6,592.7,713.6 M592.7,712.6
		c-7.7,0-15.601,1.7-23,4.9c-6.2,2.6-11.9,6.5-18,12.2c-5.4,5.399-9.7,11.8-12.5,18.6c-3,7.3-4.7,15.2-4.7,22.7
		c0,8,1.7,15.8,4.9,23.3c3.399,7.4,7.6,13.4,12.8,18.3c5.3,5,11.399,9,18,11.9c7.3,3,15.2,4.7,22.7,4.7
		c7.899,0,15.399-1.601,22.399-4.7c6.9-2.9,13.101-7,18.3-12.2c5.4-5.399,9.7-11.5,12.801-18.3c3.3-7.5,5-15.3,5-23.3
		S649.8,755,646.7,748c-2.7-6.5-6.8-12.6-12.5-18.6c-5.2-5.2-11.2-9.301-18.101-12.2C608.7,714.2,600.8,712.6,592.7,712.6
		L592.7,712.6z"/>
</g>
<text transform="matrix(1 0 0 1 -34.7339 -217.752)" font-family="'MyriadPro-Regular'" font-size="72">SPEAK</text>
</svg>
