<?xml version="1.0" encoding="utf-8"?>
<!-- Generator: Adobe Illustrator 15.0.2, SVG Export Plug-In . SVG Version: 6.00 Build 0)  -->
<!DOCTYPE svg PUBLIC "-//W3C//DTD SVG 1.1//EN" "http://www.w3.org/Graphics/SVG/1.1/DTD/svg11.dtd">
<svg version="1.1" id="Layer_1" xmlns="http://www.w3.org/2000/svg" xmlns:xlink="http://www.w3.org/1999/xlink" x="0px" y="0px"
	 width="1000px" height="1000px" viewBox="0 0 1000 1000" style="enable-background:new 0 0 1000 1000;" xml:space="preserve">
<style type="text/css">
<![CDATA[
	.st0{stroke:#40FF00;stroke-width:10;stroke-linejoin:round;}
	.st1{fill:#40FF00;}
]]>
</style>
<g shape-rendering="geometricPrecision">
	<path class="st0" d="M940.4,60v880h-704V676l-176-176l176-176V60H940.4 M940.4,59h-704c-0.6,0-1,0.4-1,1v263.6L59.7,499.3
		c-0.4,0.4-0.4,1,0,1.4l175.7,175.7V940c0,0.6,0.4,1,1,1h704c0.6,0,1-0.4,1-1V60C941.4,59.4,941,59,940.4,59z M592.7,171.9
		c16.6,0,31.7,7.4,42.6,20.6c9.4,11.7,14.6,26.3,14.6,42.3v338.9c0,8-1.4,15.7-4.3,23.2c-2.9,7.1-6.6,13.7-11.2,19.2
		c-4.9,6-11.2,10.9-18,14.3c-7.4,3.7-15.4,5.7-23.7,5.7c-8.9,0-17.2-2-24.6-6c-6.6-3.4-12.6-8.3-17.4-14c-4.9-5.4-8.6-12-11.2-19.2
		c-2.6-7.2-4-14.6-4-22.6V234.6c0-16,5.1-30.6,14.6-42.3C561,179.1,576.2,171.9,592.7,171.9 M592.7,170.9c-17,0-32.4,7.3-43.4,20.7
		c-9.7,12-14.8,26.9-14.8,43v339.8c0,7.8,1.3,15.3,4.1,22.9c2.7,7.6,6.5,14.1,11.3,19.5c5,5.9,11.1,10.8,17.7,14.2
		c7.5,4.1,16,6.1,25.1,6.1c8.3,0,16.5-2,24.2-5.8c7.2-3.6,13.6-8.6,18.3-14.6c4.5-5.3,8.3-11.8,11.3-19.4c2.9-7.5,4.4-15.4,4.4-23.5
		v-339c0-16.1-5.1-30.9-14.8-43C625,178.4,609.6,170.9,592.7,170.9L592.7,170.9z M592.7,713.6c7.7,0,15.4,1.4,23.2,4.6
		c6.6,2.9,12.6,6.9,17.7,12c5.1,5.4,9.4,11.4,12.3,18.3c3.1,7.2,4.6,14.6,4.6,22.3c0,8-1.7,15.7-4.9,22.9c-3.1,6.9-7.4,12.9-12.6,18
		c-5.1,5.1-11.2,9.2-18,12c-7.2,3.1-14.6,4.6-22,4.6c-7.7,0-15.4-1.7-22.3-4.6c-6.6-2.9-12.6-6.9-17.7-11.7
		c-5.4-5.1-9.4-11.2-12.6-18c-3.1-7.2-4.9-14.9-4.9-22.9c0-7.7,1.7-15.4,4.6-22.3c2.9-6.9,7.1-13.2,12.3-18.3
		c5.1-4.9,10.9-9.2,17.7-12C577.3,715.3,585,713.6,592.7,713.6 M592.7,712.6c-7.7,0-15.6,1.7-23,4.9c-6.2,2.6-11.9,6.5-18,12.2
		c-5.4,5.4-9.7,11.8-12.5,18.6c-3,7.3-4.7,15.2-4.7,22.7c0,8,1.7,15.8,4.9,23.3c3.4,7.4,7.6,13.4,12.8,18.3c5.3,5,11.4,9,18,11.9
		c7.3,3,15.2,4.7,22.7,4.7c7.9,0,15.4-1.6,22.4-4.7c6.9-2.9,13.1-7,18.3-12.2c5.4-5.4,9.7-11.5,12.8-18.3c3.3-7.5,5-15.3,5-23.3
		s-1.6-15.7-4.7-22.7c-2.7-6.5-6.8-12.6-12.5-18.6c-5.2-5.2-11.2-9.3-18.1-12.2C608.7,714.2,600.8,712.6,592.7,712.6L592.7,712.6z"
		/>
</g>
<g>
	<path class="st1" d="M-2074.6,614c-3.6-4.7-5.3-10-5.3-16c0-7.4,2.6-13.7,7.9-18.9c5.2-5.2,11.5-7.9,18.9-7.9
		c9.6,0,17.2,4.1,22.7,12.4c2.7,4.2,5.8,8.3,9.4,12c19,22.7,43.2,35.3,72.9,37.8c29.4,2.2,55.4-6.2,77.9-25.2
		c22.5-19.1,35-43.3,37.5-72.7c2.5-29.6-5.9-55.7-24.9-78.1c-19.1-22.4-43.4-34.8-73.1-37.3c-36.8-3.1-67.1-18.7-90.9-46.8
		c-23.9-28.1-34.3-60.6-31.4-97.6c3.1-36.8,18.7-67.1,46.8-91c25.2-21.6,54.2-32.4,86.9-32.4c38.8,0,72.7,15.9,101.6,47.8
		c4.9,5.8,9.3,11.8,13,18.1c2.7,4.2,4,9,4,14.4c0,7.4-2.6,13.7-7.9,18.9c-5.2,5.2-11.5,7.9-18.9,7.9c-8.5,0-14.7-2.7-18.7-8
		c-4-5.3-8.1-10.8-12.4-16.4c-14.5-16.9-32.7-26.3-54.5-28.1c-22.1-1.8-41.6,4.5-58.5,18.9c-16.9,14.4-26.3,32.5-28.1,54.3
		c-1.8,22.1,4.5,41.6,18.9,58.5c14.4,16.9,32.5,26.3,54.3,28.1c44.4,3.8,80.9,22.5,109.7,56.2c25.2,29.9,37.8,63.8,37.8,101.7
		c0,5.1-0.2,10.3-0.7,15.4c-3.6,44.1-22.2,80.5-55.8,109c-30.1,25.6-64.3,38.5-102.7,38.5c-47.9,0-89.2-18.9-123.7-56.8
		C-2066.6,625.3-2070.8,619.8-2074.6,614z"/>
	<path class="st1" d="M-1671.9,821c0,7.3-2.6,13.7-7.9,18.9c-5.2,5.2-11.5,7.9-18.9,7.9c-7.4,0-13.7-2.6-18.9-7.9
		c-5.2-5.2-7.9-11.5-7.9-18.9V500c0-51.7,18.3-95.8,54.8-132.4c36.6-36.6,80.7-54.8,132.4-54.8c51.7,0,95.8,18.3,132.4,54.8
		c36.6,36.6,54.8,80.7,54.8,132.4c0,51.7-18.3,95.9-54.8,132.4c-36.6,36.6-80.7,54.8-132.4,54.8c-51.7,0-95.9-18.3-132.4-54.8
		c-0.4-0.4-0.9-0.9-1.3-1.3V821z M-1671.9,500c0,37,13,68.6,39.1,94.6c26.1,26.1,57.6,39.1,94.6,39.1c37,0,68.5-13,94.6-39.1
		c26.1-26.1,39.1-57.6,39.1-94.6c0-37-13-68.5-39.1-94.6c-26.1-26.1-57.6-39.1-94.6-39.1c-37,0-68.6,13-94.6,39.1
		C-1658.9,431.5-1671.9,463-1671.9,500z"/>
	<path class="st1" d="M-1007.1,596.3c7.3,0,13.7,2.6,18.9,7.9c5.2,5.2,7.9,11.5,7.9,18.9c0,7.4-2.6,13.7-7.7,19.1
		c-34.6,30.1-75.2,45.1-122,45.1c-51.7,0-95.9-18.3-132.4-54.8c-36.6-36.6-54.8-80.7-54.8-132.4c0-51.7,18.3-95.8,54.8-132.4
		c36.6-36.6,80.7-54.8,132.4-54.8c51.7,0,95.8,18.3,132.4,54.8c36.6,36.6,54.8,80.7,54.8,132.4c0,7.4-2.6,13.7-7.9,18.9
		c-5.2,5.2-11.5,7.9-18.9,7.9h-291.9c4.9,25.6,17.2,48.3,36.8,67.9c26.1,26.1,57.6,39.1,94.6,39.1c33.4,0,62.2-10.6,86.3-31.8
		C-1018.9,598.2-1013.3,596.3-1007.1,596.3z M-978.6,473.2c-4.9-25.6-17.2-48.3-36.8-67.9c-26.1-26.1-57.6-39.1-94.6-39.1
		c-37,0-68.6,13-94.6,39.1c-19.6,19.6-31.9,42.2-36.8,67.9H-978.6z"/>
	<path class="st1" d="M-548.2,631.1c-37.5,37.5-82,56.2-133.8,56.2c-51.7,0-95.9-18.3-132.4-54.8c-36.6-36.6-54.8-80.7-54.8-132.4
		c0-51.7,18.3-95.8,54.8-132.4c36.6-36.6,80.7-54.8,132.4-54.8c51.7,0,95.8,18.3,132.4,54.8c36.6,36.6,54.8,80.7,54.8,132.4v160.5
		c0,7.4-2.6,13.7-7.9,18.9c-5.2,5.2-11.5,7.8-18.9,7.8c-7.4,0-13.7-2.6-18.9-7.8c-5.2-5.2-7.9-11.5-7.9-18.9V631.1z M-681.9,366.2
		c-37,0-68.6,13-94.6,39.1s-39.1,57.6-39.1,94.6c0,37,13,68.6,39.1,94.6c26.1,26.1,57.6,39.1,94.6,39.1c37,0,68.5-13,94.6-39.1
		c26.1-26.1,39.1-57.6,39.1-94.6c0-37-13-68.5-39.1-94.6C-613.4,379.3-644.9,366.2-681.9,366.2z"/>
	<path class="st1" d="M-387.5,463.9l226.4-147.1c4.2-2.7,9-4,14.4-4c7.4,0,13.7,2.6,18.9,7.9c5.2,5.2,7.9,11.5,7.9,18.9
		c0,7.4-2.6,13.6-7.7,18.7c-1.3,1.3-2.6,2.5-3.7,3.3l-155.1,101l159.2,179.2c4.9,5.3,7.4,11.6,7.4,18.7c0,7.4-2.6,13.7-7.9,18.9
		c-5.2,5.2-11.5,7.8-18.9,7.8c-7.4,0-13.8-2.7-19.4-8L-332.4,492l-55.2,35.8v132.7c0,7.4-2.6,13.7-7.9,18.9
		c-5.2,5.2-11.5,7.8-18.9,7.8c-7.4,0-13.7-2.6-18.9-7.8s-7.9-11.5-7.9-18.9V179c0-7.4,2.6-13.7,7.9-18.9c5.2-5.2,11.5-7.9,18.9-7.9
		c7.4,0,13.7,2.6,18.9,7.9c5.2,5.2,7.9,11.5,7.9,18.9V463.9z"/>
</g>
</svg>
