<svg xmlns="http://www.w3.org/2000/svg" viewBox="0 0 100 1000" enable-background="new 0 0 100 1000">

	<style type="text/css">
		.st0{stroke:#40FF00;stroke-width:10;stroke-linejoin:round;} 
		.st1{fill:#40FF00;}
	</style>

	<path class="st0" d="M940.4 60v880h-704v-264l-176-176 176-176v-264h704m0-1h-704c-.6 0-1 .4-1 1v263.6l-175.7 175.7c-.4.4-.4 1 0 1.4l175.7 175.7v263.6c0 .6.4 1 1 1h704c.6 0 1-.4 1-1v-880c0-.6-.4-1-1-1zm-347.7 112.9c16.6 0 31.7 7.4 42.6 20.6 9.4 11.7 14.6 26.3 14.6 42.3v338.9c0 8-1.4 15.7-4.3 23.2-2.9 7.1-6.6 13.7-11.2 19.2-4.9 6-11.2 10.9-18 14.3-7.4 3.7-15.4 5.7-23.7 5.7-8.9 0-17.2-2-24.6-6-6.6-3.4-12.6-8.3-17.4-14-4.9-5.4-8.6-12-11.2-19.2-2.6-7.2-4-14.6-4-22.6v-339.7c0-16 5.1-30.6 14.6-42.3 10.9-13.2 26.1-20.4 42.6-20.4m0-1c-17 0-32.4 7.3-43.4 20.7-9.7 12-14.8 26.9-14.8 43v339.8c0 7.8 1.3 15.3 4.1 22.9 2.7 7.6 6.5 14.1 11.3 19.5 5 5.9 11.1 10.8 17.7 14.2 7.5 4.1 16 6.1 25.1 6.1 8.3 0 16.5-2 24.2-5.8 7.2-3.6 13.6-8.6 18.3-14.6 4.5-5.3 8.3-11.8 11.3-19.4 2.9-7.5 4.4-15.4 4.4-23.5v-339c0-16.1-5.1-30.9-14.8-43-11.1-13.4-26.5-20.9-43.4-20.9zm0 542.7c7.7 0 15.4 1.4 23.2 4.6 6.6 2.9 12.6 6.9 17.7 12 5.1 5.4 9.4 11.4 12.3 18.3 3.1 7.2 4.6 14.6 4.6 22.3 0 8-1.7 15.7-4.9 22.9-3.1 6.9-7.4 12.9-12.6 18-5.1 5.1-11.2 9.2-18 12-7.2 3.1-14.6 4.6-22 4.6-7.7 0-15.4-1.7-22.3-4.6-6.6-2.9-12.6-6.9-17.7-11.7-5.4-5.1-9.4-11.2-12.6-18-3.1-7.2-4.9-14.9-4.9-22.9 0-7.7 1.7-15.4 4.6-22.3 2.9-6.9 7.1-13.2 12.3-18.3 5.1-4.9 10.9-9.2 17.7-12 7.2-3.2 14.9-4.9 22.6-4.9m0-1c-7.7 0-15.6 1.7-23 4.9-6.2 2.6-11.9 6.5-18 12.2-5.4 5.4-9.7 11.8-12.5 18.6-3 7.3-4.7 15.2-4.7 22.7 0 8 1.7 15.8 4.9 23.3 3.4 7.4 7.6 13.4 12.8 18.3 5.3 5 11.4 9 18 11.9 7.3 3 15.2 4.7 22.7 4.7 7.9 0 15.4-1.6 22.4-4.7 6.9-2.9 13.1-7 18.3-12.2 5.4-5.4 9.7-11.5 12.8-18.3 3.3-7.5 5-15.3 5-23.3s-1.6-15.7-4.7-22.7c-2.7-6.5-6.8-12.6-12.5-18.6-5.2-5.2-11.2-9.3-18.1-12.2-7.4-3-15.3-4.6-23.4-4.6z" shape-rendering="geometricPrecision"/>

	<path class="st1" d="M-2074.6 614c-3.6-4.7-5.3-10-5.3-16 0-7.4 2.6-13.7 7.9-18.9 5.2-5.2 11.5-7.9 18.9-7.9 9.6 0 17.2 4.1 22.7 12.4 2.7 4.2 5.8 8.3 9.4 12 19 22.7 43.2 35.3 72.9 37.8 29.4 2.2 55.4-6.2 77.9-25.2 22.5-19.1 35-43.3 37.5-72.7 2.5-29.6-5.9-55.7-24.9-78.1-19.1-22.4-43.4-34.8-73.1-37.3-36.8-3.1-67.1-18.7-90.9-46.8-23.9-28.1-34.3-60.6-31.4-97.6 3.1-36.8 18.7-67.1 46.8-91 25.2-21.6 54.2-32.4 86.9-32.4 38.8 0 72.7 15.9 101.6 47.8 4.9 5.8 9.3 11.8 13 18.1 2.7 4.2 4 9 4 14.4 0 7.4-2.6 13.7-7.9 18.9-5.2 5.2-11.5 7.9-18.9 7.9-8.5 0-14.7-2.7-18.7-8s-8.1-10.8-12.4-16.4c-14.5-16.9-32.7-26.3-54.5-28.1-22.1-1.8-41.6 4.5-58.5 18.9-16.9 14.4-26.3 32.5-28.1 54.3-1.8 22.1 4.5 41.6 18.9 58.5 14.4 16.9 32.5 26.3 54.3 28.1 44.4 3.8 80.9 22.5 109.7 56.2 25.2 29.9 37.8 63.8 37.8 101.7 0 5.1-.2 10.3-.7 15.4-3.6 44.1-22.2 80.5-55.8 109-30.1 25.6-64.3 38.5-102.7 38.5-47.9 0-89.2-18.9-123.7-56.8-4.7-5.4-8.9-10.9-12.7-16.7zM-1671.9 821c0 7.3-2.6 13.7-7.9 18.9-5.2 5.2-11.5 7.9-18.9 7.9-7.4 0-13.7-2.6-18.9-7.9-5.2-5.2-7.9-11.5-7.9-18.9v-321c0-51.7 18.3-95.8 54.8-132.4 36.6-36.6 80.7-54.8 132.4-54.8s95.8 18.3 132.4 54.8c36.6 36.6 54.8 80.7 54.8 132.4s-18.3 95.9-54.8 132.4c-36.6 36.6-80.7 54.8-132.4 54.8s-95.9-18.3-132.4-54.8l-1.3-1.3v189.9zm0-321c0 37 13 68.6 39.1 94.6 26.1 26.1 57.6 39.1 94.6 39.1 37 0 68.5-13 94.6-39.1 26.1-26.1 39.1-57.6 39.1-94.6 0-37-13-68.5-39.1-94.6-26.1-26.1-57.6-39.1-94.6-39.1-37 0-68.6 13-94.6 39.1-26.1 26.1-39.1 57.6-39.1 94.6zM-1007.1 596.3c7.3 0 13.7 2.6 18.9 7.9 5.2 5.2 7.9 11.5 7.9 18.9 0 7.4-2.6 13.7-7.7 19.1-34.6 30.1-75.2 45.1-122 45.1-51.7 0-95.9-18.3-132.4-54.8-36.6-36.6-54.8-80.7-54.8-132.4s18.3-95.8 54.8-132.4c36.6-36.6 80.7-54.8 132.4-54.8s95.8 18.3 132.4 54.8c36.6 36.6 54.8 80.7 54.8 132.4 0 7.4-2.6 13.7-7.9 18.9-5.2 5.2-11.5 7.9-18.9 7.9h-291.9c4.9 25.6 17.2 48.3 36.8 67.9 26.1 26.1 57.6 39.1 94.6 39.1 33.4 0 62.2-10.6 86.3-31.8 4.9-3.9 10.5-5.8 16.7-5.8zm28.5-123.1c-4.9-25.6-17.2-48.3-36.8-67.9-26.1-26.1-57.6-39.1-94.6-39.1-37 0-68.6 13-94.6 39.1-19.6 19.6-31.9 42.2-36.8 67.9h262.8zM-548.2 631.1c-37.5 37.5-82 56.2-133.8 56.2-51.7 0-95.9-18.3-132.4-54.8-36.6-36.6-54.8-80.7-54.8-132.4s18.3-95.8 54.8-132.4c36.6-36.6 80.7-54.8 132.4-54.8s95.8 18.3 132.4 54.8c36.6 36.6 54.8 80.7 54.8 132.4v160.5c0 7.4-2.6 13.7-7.9 18.9-5.2 5.2-11.5 7.8-18.9 7.8-7.4 0-13.7-2.6-18.9-7.8-5.2-5.2-7.9-11.5-7.9-18.9v-29.5zm-133.7-264.9c-37 0-68.6 13-94.6 39.1s-39.1 57.6-39.1 94.6c0 37 13 68.6 39.1 94.6 26.1 26.1 57.6 39.1 94.6 39.1 37 0 68.5-13 94.6-39.1 26.1-26.1 39.1-57.6 39.1-94.6 0-37-13-68.5-39.1-94.6-26.1-26-57.6-39.1-94.6-39.1zM-387.5 463.9l226.4-147.1c4.2-2.7 9-4 14.4-4 7.4 0 13.7 2.6 18.9 7.9 5.2 5.2 7.9 11.5 7.9 18.9 0 7.4-2.6 13.6-7.7 18.7-1.3 1.3-2.6 2.5-3.7 3.3l-155.1 101 159.2 179.2c4.9 5.3 7.4 11.6 7.4 18.7 0 7.4-2.6 13.7-7.9 18.9-5.2 5.2-11.5 7.8-18.9 7.8-7.4 0-13.8-2.7-19.4-8l-166.4-187.2-55.2 35.8v132.7c0 7.4-2.6 13.7-7.9 18.9-5.2 5.2-11.5 7.8-18.9 7.8-7.4 0-13.7-2.6-18.9-7.8s-7.9-11.5-7.9-18.9v-481.5c0-7.4 2.6-13.7 7.9-18.9 5.2-5.2 11.5-7.9 18.9-7.9 7.4 0 13.7 2.6 18.9 7.9 5.2 5.2 7.9 11.5 7.9 18.9v284.9z"/>

</svg>
