<svg xmlns="http://www.w3.org/2000/svg" viewBox="0 0 1000 1000">
  <path fill="#40FF00" d="M603.5 989c-2.8 0-5-2.2-5-5v-18c0-2.8 2.2-5 5-5h18c2.8 0 5 2.2 5 5v17.9c47.5-12.4 92.3-31.6 133.3-56.5-.8-.9-1.3-2-1.3-3.3v-18c0-2.8 2.2-5 5-5h18c2.8 0 5 2.2 5 5v3.8c16.8-11.8 32.9-24.6 48.1-38.3h-1.1c-2.8 0-5-2.2-5-5v-21c0-2.8 2.2-5 5-5h18c2.8 0 5 2.2 5 5v5.1c48.1-48.9 86.3-107.7 111.1-173.1h-4.1c-2.8 0-5-2.2-5-5v-18c0-2.8 2.2-5 5-5h13.8C992 602.3 1000 552.1 1000 500 1000 223.9 776.1 0 500 0S0 223.9 0 500c0 48.4 6.9 95.2 19.7 139.5H26c2.8 0 5 2.2 5 5v18c0 1.8-1 3.4-2.5 4.3 5.2 14.7 11.1 29.1 17.6 43.2h15.4c2.8 0 5 2.2 5 5v18c0 2.8-2.2 5-5 5h-1.3c8.7 16 18.2 31.5 28.6 46.4-.1-.5-.2-.9-.2-1.4v-18c0-2.8 2.2-5 5-5h18c2.8 0 5 2.2 5 5v18c0 2.8-2.2 5-5 5h-18c-1.1 0-2.1-.4-3-1 21.3 30.3 45.8 58.1 73.2 83h17.8c2.8 0 5 2.2 5 5v14.5c42.2 34 90.1 61.3 142 80.3V966c0-2.8 2.2-5 5-5h18c2.8 0 5 2.2 5 5v13.1C402 992.7 450.1 1000 500 1000c35.9 0 71-3.8 104.8-11h-1.3zm283-186.5c0 2.8-2.2 5-5 5h-18c-2.8 0-5-2.2-5-5v-18c0-2.8 2.2-5 5-5h18c2.8 0 5 2.2 5 5v18zm42-188c0-2.8 2.2-5 5-5h18c2.8 0 5 2.2 5 5v18c0 2.8-2.2 5-5 5h-18c-2.8 0-5-2.2-5-5v-18zm-10 50c0-2.8 2.2-5 5-5h18c2.8 0 5 2.2 5 5v18c0 2.8-2.2 5-5 5h-18c-2.8 0-5-2.2-5-5v-18zm-10 60c0-2.8 2.2-5 5-5h18c2.8 0 5 2.2 5 5v18c0 2.8-2.2 5-5 5h-18c-2.8 0-5-2.2-5-5v-18zm-40-40c0-2.8 2.2-5 5-5h18c2.8 0 5 2.2 5 5v18c0 2.8-2.2 5-5 5h-18c-2.8 0-5-2.2-5-5v-18zm-20 40c0-2.8 2.2-5 5-5h18c2.8 0 5 2.2 5 5v28c0 2.8-2.2 5-5 5h-18c-2.8 0-5-2.2-5-5v-28zM28.5 613v-18c0-2.8 2.2-5 5-5h18c2.8 0 5 2.2 5 5v18c0 2.8-2.2 5-5 5h-18c-2.8 0-5-2.2-5-5zm48 60c0 2.8-2.2 5-5 5h-18c-2.8 0-5-2.2-5-5v-18c0-2.8 2.2-5 5-5h18c2.8 0 5 2.2 5 5v18zm40 50c0 2.8-2.2 5-5 5h-18c-2.8 0-5-2.2-5-5v-18c0-2.8 2.2-5 5-5h18c2.8 0 5 2.2 5 5v18zm50 110c0 2.8-2.2 5-5 5h-18c-2.8 0-5-2.2-5-5v-18c0-2.8 2.2-5 5-5h18c2.8 0 5 2.2 5 5v18zm0-70c0 2.8-2.2 5-5 5h-18c-2.8 0-5-2.2-5-5v-18c0-2.8 2.2-5 5-5h18c2.8 0 5 2.2 5 5v18zm486 169.5c0 2.8-2.2 5-5 5h-18c-2.8 0-5-2.2-5-5v-18c0-2.8 2.2-5 5-5h18c2.8 0 5 2.2 5 5v18zm14-48.5c0 2.8-2.2 5-5 5h-18c-2.8 0-5-2.2-5-5v-18c0-2.8 2.2-5 5-5h18c2.8 0 5 2.2 5 5v18zm40 52.5c0 2.8-2.2 5-5 5h-18c-2.8 0-5-2.2-5-5v-18c0-2.8 2.2-5 5-5h18c2.8 0 5 2.2 5 5v18zm40-50c0 2.8-2.2 5-5 5h-18c-2.8 0-5-2.2-5-5v-18c0-2.8 2.2-5 5-5h18c2.8 0 5 2.2 5 5v18zm50-27c0 2.8-2.2 5-5 5h-18c-2.8 0-5-2.2-5-5v-18c0-2.8 2.2-5 5-5h18c2.8 0 5 2.2 5 5v18zm-43-241.5c-2.8 0-5-2.2-5-5v-18c0-2.8 2.2-5 5-5h18c2.8 0 5 2.2 5 5v18c0 2.8-2.2 5-5 5h-18zm73 167.5v18c0 2.8-2.2 5-5 5h-18c-2.8 0-5-2.2-5-5v-18c0-2.8 2.2-5 5-5h18c2.8 0 5 2.2 5 5zm-639-504.3c0-17.2 14.1-31.2 31.2-31.2h187.5c17.2 0 31.2 14.1 31.2 31.2v31.2h125v-31.2c0-17.2 14.1-31.2 31.2-31.2h187.5c17.2 0 31.2 14.1 31.2 31.2V375c0 34.4-28.1 62.5-62.5 62.5H625c-34.4 0-62.5-28.1-62.5-62.5h-125c0 34.4-28.1 62.5-62.5 62.5H250c-34.4 0-62.5-28.1-62.5-62.5v-93.8zm539 292.3v18c0 2.8-2.2 5-5 5h-18c-2.8 0-5-2.2-5-5v-18c0-2.8 2.2-5 5-5h18c2.8 0 5 2.2 5 5zm-40 41.5v18c0 2.8-2.2 5-5 5h-18c-2.8 0-5-2.2-5-5v-18c0-2.8 2.2-5 5-5h18c2.8 0 5 2.2 5 5zm-50 20v18c0 2.8-2.2 5-5 5h-18c-2.8 0-5-2.2-5-5v-18c0-2.8 2.2-5 5-5h18c2.8 0 5 2.2 5 5zm-30 43.5v18c0 2.8-2.2 5-5 5h-18c-2.8 0-5-2.2-5-5v-18c0-2.8 2.2-5 5-5h18c2.8 0 5 2.2 5 5zm-30-43.5v18c0 2.8-2.2 5-5 5h-18c-2.8 0-5-2.2-5-5v-18c0-2.8 2.2-5 5-5h18c2.8 0 5 2.2 5 5zm-30 53.5v18c0 2.8-2.2 5-5 5h-18c-2.8 0-5-2.2-5-5v-18c0-2.8 2.2-5 5-5h18c2.8 0 5 2.2 5 5zm-63-20.5c-2.8 0-5-2.2-5-5v-18c0-2.8 2.2-5 5-5h18c2.8 0 5 2.2 5 5v18c0 2.8-2.2 5-5 5h-18zm12 30.5v18c0 2.8-2.2 5-5 5h-18c-2.8 0-5-2.2-5-5v-18c0-2.8 2.2-5 5-5h18c2.8 0 5 2.2 5 5zm-50-11v18c0 2.8-2.2 5-5 5h-18c-2.8 0-5-2.2-5-5v-18c0-2.8 2.2-5 5-5h18c2.8 0 5 2.2 5 5zm-52-29.5c-2.8 0-5-2.2-5-5v-18c0-2.8 2.2-5 5-5h18c2.8 0 5 2.2 5 5v18c0 2.8-2.2 5-5 5h-18zm3 27v18c0 2.8-2.2 5-5 5h-18c-2.8 0-5-2.2-5-5v-18c0-2.8 2.2-5 5-5h18c2.8 0 5 2.2 5 5zm-208 74.5v-18c0-2.8 2.2-5 5-5h18c2.8 0 5 2.2 5 5v18c0 2.8-2.2 5-5 5h-18c-2.8 0-5-2.2-5-5zm38 73.5c0 2.8-2.2 5-5 5h-18c-2.8 0-5-2.2-5-5v-18c0-2.8 2.2-5 5-5h18c2.8 0 5 2.2 5 5v18zm30 70c0 2.8-2.2 5-5 5h-18c-2.8 0-5-2.2-5-5v-18c0-2.8 2.2-5 5-5h18c2.8 0 5 2.2 5 5v18zm50 40c0 2.8-2.2 5-5 5h-18c-2.8 0-5-2.2-5-5v-18c0-2.8 2.2-5 5-5h18c2.8 0 5 2.2 5 5v18zm0-60c0 2.8-2.2 5-5 5h-18c-2.8 0-5-2.2-5-5v-18c0-2.8 2.2-5 5-5h18c2.8 0 5 2.2 5 5v18zm17-184c-2.8 0-5-2.2-5-5v-18c0-2.8 2.2-5 5-5h18c2.8 0 5 2.2 5 5v18c0 2.8-2.2 5-5 5h-18zm9 58.5v-18c0-2.8 2.2-5 5-5h18c2.8 0 5 2.2 5 5v18c0 2.8-2.2 5-5 5h-18c-2.8 0-5-2.2-5-5zm34 145.5c0 2.8-2.2 5-5 5h-18c-2.8 0-5-2.2-5-5v-18c0-2.8 2.2-5 5-5h18c2.8 0 5 2.2 5 5v18zm40 61c0 2.8-2.2 5-5 5h-18c-2.8 0-5-2.2-5-5v-18c0-2.8 2.2-5 5-5h18c2.8 0 5 2.2 5 5v18zm30-51c0 2.8-2.2 5-5 5h-18c-2.8 0-5-2.2-5-5v-18c0-2.8 2.2-5 5-5h18c2.8 0 5 2.2 5 5v18zm50 30c0 2.8-2.2 5-5 5h-18c-2.8 0-5-2.2-5-5v-18c0-2.8 2.2-5 5-5h18c2.8 0 5 2.2 5 5v18zm0-60c0 2.8-2.2 5-5 5h-18c-2.8 0-5-2.2-5-5v-18c0-2.8 2.2-5 5-5h18c2.8 0 5 2.2 5 5v18zm-118.9-99.9l32.4-54c30.6 13.4 64.4 20.9 100 20.9 91 0 170.7-48.7 214.4-121.4l53.6 32.2c-54.7 90.9-154.2 151.7-268 151.7-47.3 0-92.2-10.5-132.4-29.4zM536.5 973c0 2.8-2.2 5-5 5h-18c-2.8 0-5-2.2-5-5v-18c0-2.8 2.2-5 5-5h18c2.8 0 5 2.2 5 5v18zm0-50c0 2.8-2.2 5-5 5h-18c-2.8 0-5-2.2-5-5v-18c0-2.8 2.2-5 5-5h18c2.8 0 5 2.2 5 5v18zm12-36.5v-18c0-2.8 2.2-5 5-5h18c2.8 0 5 2.2 5 5v18c0 2.8-2.2 5-5 5h-18c-2.8 0-5-2.2-5-5zm48 50c0 2.8-2.2 5-5 5h-18c-2.8 0-5-2.2-5-5v-18c0-2.8 2.2-5 5-5h18c2.8 0 5 2.2 5 5v18z"/>
</svg>
