<svg xmlns="http://www.w3.org/2000/svg" viewBox="0 0 400 400">
  <title>pertiwi consulting</title>
  <path fill="#00A1A4" d="M208.93 28.643c-99.57 0-180.277 80.723-180.277 180.289 0 39.109 12.458 75.307 33.617 104.849a134.105 134.105 0 0 1-1.05-5.379 1471.058 1471.058 0 0 0-3.36-18.8c-1.141-6.163-2.281-12.308-3.422-18.438a956.633 956.633 0 0 1-3.222-18.397 1828.547 1828.547 0 0 1-5.948-36.385 1136.85 1136.85 0 0 1-5-36.608c-.48-3.779 1.267-5.891 5.253-6.344 3.982-.441 6.536.929 7.654 4.14 2.853-2.653 6.474-3.794 10.852-3.425 3.763.415 7.273 1.985 10.522 4.72 3.252 2.723 5.629 5.687 7.135 8.897 2.024 4.354 2.976 9.024 2.854 14.013-.131 4.984-.856 9.746-2.193 14.262-.538 1.712-1.395 4.005-2.573 6.881a56.529 56.529 0 0 1-4.347 8.414c-1.712 2.734-3.664 5.069-5.856 6.989-2.182 1.928-4.555 2.773-7.101 2.527.319 1.851.629 3.702.93 5.545.307 1.831.63 3.675.987 5.529 1.022 5.918 2.07 11.858 3.148 17.803a2093.76 2093.76 0 0 0 3.292 17.796c.557 3.071 1.117 6.128 1.686 9.197a557.487 557.487 0 0 0 1.782 9.142c.538 2.907 1.071 5.856 1.605 8.828a50.77 50.77 0 0 1 .78 8.947c-.031 2.066-.87 3.746-2.488 5.049 33.021 37.126 81.144 60.521 134.741 60.521 99.567 0 180.278-80.712 180.278-180.274-.001-99.565-80.712-180.288-180.279-180.288zm-74.886 239.643c-1.233 2.723-3.218 5.03-5.956 6.92-2.734 1.885-5.445 3.401-8.125 4.572-2.431 1.021-5.039 1.748-7.811 2.189-2.769.431-5.418.153-7.926-.853-4.105-1.7-7.219-4.186-9.335-7.453-2.124-3.261-3.445-6.904-3.971-10.91-2.672-.618-4.143-2.454-4.404-5.518-.131-1.578.284-2.95 1.245-4.109.956-1.156 2.092-2.312 3.398-3.494.502-4.309 1.406-8.706 2.711-13.184 1.621-5.787 3.844-10.803 6.667-15.069 2.807-4.266 6.793-8.064 11.935-11.401 1.889-1.19 4.021-2.2 6.382-3.03 2.358-.821 4.696-.879 6.993-.168 3.314 1.086 5.38 2.78 6.221 5.057.826 2.281.922 4.777.28 7.484-.641 2.7-1.75 5.399-3.329 8.091-1.574 2.691-3.114 4.996-4.604 6.893a66.816 66.816 0 0 1-10.099 10.452 273.44 273.44 0 0 0-11.268 9.942c.035 2.592.308 5.484.811 8.705.511 3.211 2.246 5.177 5.203 5.892 1.145.284 2.446.153 3.898-.376a27.294 27.294 0 0 0 3.921-1.782 64.108 64.108 0 0 0 5.395-3.391c1.689-1.18 3.571-2.178 5.661-2.984 2.208-.78 3.978-.18 5.322 1.793 1.334 1.976 1.595 3.88.785 5.732zm51.388-52.33c-.887 1.702-1.943 3.007-3.172 3.924-1.244.911-2.538 1.947-3.909 3.087-2.374 2.078-4.197 3.902-5.464 5.477a36.777 36.777 0 0 0-6.455 12.104 68.962 68.962 0 0 0-3.138 15.257 233.673 233.673 0 0 0-.871 15.533c-.092 3.379-1.955 5.46-5.595 6.255-3.641.787-5.872-.594-6.671-4.182a4196.582 4196.582 0 0 0-5.438-23.383 198.566 198.566 0 0 0-6.897-22.986c-.614-1.706-.503-3.326.311-4.874.818-1.551 1.913-2.715 3.28-3.482 1.375-.768 2.78-1.006 4.221-.711 1.447.296 2.484 1.417 3.114 3.356a141.464 141.464 0 0 0 2.661 7.841c.91 2.435 1.725 5.12 2.438 8.057.185.664.411.603.688-.204 2.246-6.524 5.184-12.073 8.816-16.658 1.925-2.377 3.914-4.436 5.979-6.171 1.924-1.567 3.76-2.861 5.519-3.859 1.755-1.01 3.905-1.763 6.447-2.262 2.488-.461 4.005.333 4.554 2.377.55 2.036.408 3.879-.418 5.504zm48.028-35.195c-.285 2.512-1.425 4.362-3.41 5.526a55.838 55.838 0 0 0-5.621 3.755c-2.586 1.932-4.824 3.779-6.729 5.53a5442.46 5442.46 0 0 0 4.697 29.023 286.022 286.022 0 0 1 3.26 29.188c.084 1.771.138 3.928.154 6.49.015 2.554-.181 4.685-.604 6.408l-.048.173c-.258 1.523-.939 2.915-2.055 4.19-1.134 1.298-2.496 2.016-4.071 2.15-1.954.169-3.353-1.144-4.216-3.937-.864-2.799-1.424-6.048-1.674-9.734-.253-3.69-.338-7.292-.265-10.802.069-3.518.058-5.91-.054-7.178-1.071-11.824-2.465-23.958-4.178-36.416a100.579 100.579 0 0 0-6.701 9.235c-.999 1.456-2.423 2.254-4.282 2.396-1.863.142-3.41-.296-4.654-1.31-1.463-1.122-2.246-2.526-2.343-4.216-.1-1.69.319-3.284 1.256-4.766 1.739-2.611 3.828-5.503 6.271-8.698a111.82 111.82 0 0 1 8.041-9.354c-1.413-9.608-2.826-19.231-4.239-28.858a821.753 821.753 0 0 1-3.736-28.985c-.138-1.291.142-2.597.837-3.902.699-1.309 1.425-2.461 2.185-3.459.081-.139.792-.865 2.127-2.174 1.34-1.309 2.089-1.417 2.247-.307a794.784 794.784 0 0 0 4.512 29.88c1.689 9.93 3.378 19.857 5.065 29.783 4.312-3.236 8.391-5.322 12.234-6.24 2.02-.476 3.572.069 4.654 1.647 1.087 1.576 1.533 3.226 1.34 4.962zm4.709-12.242c-.216-1.816.203-3.483 1.259-4.992 1.052-1.509 2.508-2.419 4.351-2.734 3.322-.499 5.756 1.021 7.312 4.57 1.548 3.541 1.521 6.382-.069 8.517-2.454 3.391-5.127 4.17-8.01 2.319-2.888-1.843-4.506-4.4-4.843-7.68zm22.549 99.316c-4.186.596-6.69-1.129-7.504-5.179a393.61 393.61 0 0 1-5.318-33.855 3275.176 3275.176 0 0 0-4.028-34.016c-.243-1.816.398-3.395 1.943-4.72 1.535-1.328 3.148-2.008 4.826-2.031 1.966.023 3.521.703 4.662 2.035 1.148 1.344 1.82 2.903 2.043 4.693a783.86 783.86 0 0 0 4.6 32.068 529.04 529.04 0 0 1 4.305 32.331c.508 5.192-1.335 8.091-5.529 8.674zm66.403-78.042a511.265 511.265 0 0 0-7.745 35.851 633.233 633.233 0 0 1-7.466 35.844c-.606 2.382-2.369 3.995-5.291 4.823-2.926.822-5.015-.08-6.271-2.727-2.211-4.73-4.023-9.927-5.444-15.571a108.041 108.041 0 0 0-1.057 5.68c-.368 2.266-.737 4.53-1.105 6.809-.515 3.096-2.342 4.766-5.492 5.004-3.142.237-5.233-1.16-6.273-4.187a450.016 450.016 0 0 1-8.03-25.087 336.278 336.278 0 0 1-6.306-25.656c-.599-3.095.71-5.637 3.96-7.611 3.244-1.974 5.379-1.01 6.394 2.892 2.23 8.602 3.767 14.347 4.607 17.242.841 2.889 1.46 5.05 1.867 6.479.21-4.067.49-8.141.852-12.215.357-4.06.918-8.123 1.694-12.185.571-3.129 2.507-4.766 5.798-4.911 3.291-.143 5.396 1.275 6.302 4.255.897 2.822 2.073 7.703 3.518 14.646 1.452 6.943 2.526 11.935 3.222 15a622.319 622.319 0 0 0 4.755-23.544 351.154 351.154 0 0 1 5.121-23.521c.98-3.939 3.525-5.472 7.654-4.604 4.129.881 5.703 3.313 4.736 7.294zm2.569-29.081c-.215-1.817.203-3.483 1.26-4.992 1.056-1.51 2.507-2.416 4.351-2.734 3.326-.499 5.765 1.021 7.312 4.566 1.552 3.544 1.521 6.394-.064 8.521-2.458 3.387-5.131 4.159-8.011 2.32-2.89-1.844-4.502-4.402-4.848-7.681zm22.557 99.325c-4.194.587-6.692-1.137-7.511-5.188a393.186 393.186 0 0 1-5.315-33.854 3153.376 3153.376 0 0 0-4.028-34.016c-.245-1.817.396-3.395 1.939-4.72 1.536-1.328 3.149-2.008 4.836-2.031 1.961.023 3.516.703 4.661 2.035 1.141 1.333 1.819 2.899 2.035 4.693a793.674 793.674 0 0 0 4.601 32.068 532.68 532.68 0 0 1 4.309 32.33c.502 5.192-1.341 8.092-5.527 8.683zm-238.621-29.911c1.628-1.729 2.957-3.414 3.99-5.058 1.025-1.647 1.044-2.803.057-3.468-1.021-.63-2.173-.2-3.444 1.298-1.279 1.498-2.484 3.268-3.625 5.311-1.128 2.047-2.461 4.877-3.993 8.51 3.044-2.665 5.387-4.858 7.015-6.593zm-44.914-13.667c1.102-2.988 1.974-6.233 2.615-9.747.642-3.51.661-6.762.054-9.762a15.96 15.96 0 0 0-3.836-7.5c-1.951-2.166-4.021-3.153-6.214-2.961-3.249.338-5.223 2.473-5.925 6.417.73 5.519 1.552 11.589 2.477 18.214a880.247 880.247 0 0 0 2.718 18.19c.5-.625 1.034-1.248 1.595-1.874a20.505 20.505 0 0 0 1.628-2.009c2.261-3.116 3.889-6.107 4.888-8.968z"/>
  <path d="M345.608 53.016C311.518 19.024 263.728-.415 215.8.007 167.856.333 120.707 20.498 87.563 54.59a178.215 178.215 0 0 0-9.656 10.656 187.277 187.277 0 0 0-24.744 20.886c-17.023 17.281-30.605 37.887-39.71 60.31C4.317 168.853-.263 193.049-.145 217.169c.088 48.336 20.187 96.09 54.533 129.815 34.089 33.985 81.879 53.424 129.812 53.009 47.943-.334 95.094-20.495 128.233-54.591a177.954 177.954 0 0 0 9.651-10.648 187.025 187.025 0 0 0 24.751-20.895c17.023-17.268 30.606-37.882 39.712-60.301 9.131-22.414 13.716-46.607 13.598-70.734-.093-48.332-20.192-96.088-54.537-129.808zm-34.685 290.877c-33.47 33.018-80.113 51.673-126.724 51.02-46.623-.107-92.62-19.477-125.142-52.594C26.293 309.413 7.58 263.394 7.987 217.17c.166-44.444 17.994-88.242 48.568-120.14-13.957 26.327-21.579 55.976-21.545 85.794-.553 47.383 18.19 94.782 51.384 129.404 16.593 17.269 36.639 31.416 58.8 41.027 22.199 9.535 46.347 14.6 70.604 14.93 24.25.031 48.542-4.673 71.008-13.932a182.13 182.13 0 0 0 28.697-15.063 179.746 179.746 0 0 1-4.58 4.703zm28.794-37.146c-32.6 32.376-77.979 51.204-123.917 51.273-37.073.502-74.171-11.185-104.797-32.632a24.864 24.864 0 0 0 2.137-.114c1.819-.182 5.342-.771 7.002-1.83l.142-.091-.487-2.695-.313.197c-1.885 1.187-5.534 1.626-6.607 1.732-.643.063-1.277.095-1.885.095-1.797 0-3.414-.286-4.835-.813a176.062 176.062 0 0 1-4.751-3.707c-.93-1.415-1.523-3.127-1.718-5.107-.639-6.509 3.709-11.186 11.077-11.914a25.748 25.748 0 0 1 2.565-.132c1.694 0 3.169.188 4.268.543l.335.107-.07-2.878-.167-.055c-1.035-.34-2.757-.411-4.019-.411-1.064 0-2.251.052-3.176.14-4.648.457-8.465 2.139-11.036 4.866-2.537 2.688-3.674 6.173-3.29 10.076.015.152.044.296.063.445a173.704 173.704 0 0 1-5.993-5.462c-16.758-16.11-30.494-35.552-39.814-57.056-9.22-21.536-14.105-44.957-14.404-68.5.046-23.536 4.669-47.057 13.701-68.788a173.867 173.867 0 0 1 10.203-20.43c.119-.118.235-.239.354-.356 32.598-32.376 77.977-51.2 123.917-51.273 45.928-.619 91.908 17.46 125.557 49.645 16.758 16.105 30.49 35.54 39.813 57.052 9.217 21.547 14.101 44.96 14.401 68.496-.043 23.544-4.674 47.065-13.698 68.792a173.982 173.982 0 0 1-10.208 20.436c-.119.115-.233.234-.35.349zm3.72-3.773c13.959-26.328 21.583-55.98 21.552-85.804.548-47.375-18.194-94.774-51.389-129.396-16.594-17.273-36.635-31.417-58.8-41.032-22.2-9.531-46.342-14.597-70.601-14.935-24.254-.019-48.543 4.682-71.012 13.94-9.995 4.146-19.598 9.206-28.69 15.056 1.5-1.589 3.019-3.161 4.575-4.695C122.547 23.094 169.188 4.442 215.8 5.088c46.619.103 92.615 19.469 125.142 52.602 32.76 32.887 51.477 78.922 51.065 125.134-.162 44.461-17.993 88.252-48.57 120.15zm-163.971-10.865l-3.512.343 2.164 21.969-17.322-20.362-.084-.1-4.182.409 2.529 25.688.025.249 3.512-.353-2.117-21.519 17.099 20.047 4.445-.436-2.532-25.689-.025-.246zm15.89 9.665c-3.151-1.04-6.127-2.022-6.341-4.175-.377-3.821 4.461-4.598 5.953-4.745 2.094-.204 4.251-.055 5.544.39l.295.102.316-2.888-.224-.045c-1.146-.233-2.501-.356-3.921-.356-.97 0-1.748.056-2.229.103-5.841.58-9.641 3.814-9.24 7.865.366 3.735 4.751 5.238 8.621 6.564 3.275 1.122 6.37 2.183 6.582 4.338.128 1.301-.184 2.421-.929 3.328-1.027 1.251-2.873 2.063-5.198 2.289-2.625.258-4.788-.002-6.771-.811l-.338-.138-.052 3.178.192.048c1.427.358 3.009.539 4.703.539h.001c.779 0 1.586-.039 2.398-.117 2.637-.26 5.031-1.104 6.742-2.38 2.065-1.54 3.03-3.636 2.791-6.062-.415-4.228-4.92-5.715-8.895-7.027zm-55.912-6.075c-.606 0-1.235.032-1.869.094-4.162.409-7.517 2.049-9.701 4.742-2.138 2.638-3.083 6.191-2.662 10.008.853 7.729 5.602 12.163 13.029 12.163.636 0 1.299-.033 1.97-.099 8.479-.837 13.099-6.354 12.359-14.759-.623-7.38-5.776-12.149-13.126-12.149zm7.88 20.092c-1.603 2.386-4.151 3.813-7.371 4.128-.421.041-.84.062-1.246.062-6.222 0-9.493-4.915-9.975-9.786-.521-5.339 2.092-11.033 9.104-11.72.425-.042.848-.063 1.257-.063 6.22 0 9.488 4.915 9.967 9.785.276 2.818-.34 5.515-1.736 7.594zm95.365-6.426l-2.263-23.002-.025-.249-3.516.349 2.532 25.686.025.249 15.762-1.547-.265-2.69-12.25 1.204zm85.595-20.122l.264 2.682 7.085-.698.84 8.521c-1.281.734-3.986 1.221-6.143 1.435-.644.063-1.28.096-1.89.096-6.483 0-10.708-3.598-11.299-9.624-.639-6.514 3.708-11.194 11.076-11.923a29.848 29.848 0 0 1 2.906-.155c1.921 0 3.541.238 4.954.727l.314.109.145-2.896-.185-.058c-1.478-.458-3.587-.554-5.097-.554-1.121 0-2.293.054-3.3.152-4.651.458-8.468 2.14-11.039 4.864-2.537 2.688-3.674 6.173-3.29 10.08.732 7.393 6.31 11.984 14.556 11.984.781 0 1.594-.04 2.413-.121 3.558-.343 6.552-1.144 9.423-2.52l.158-.076-1.286-13.073-10.605 1.048zm-97.898-2.149l-3.516.353 1.65 16.794c.203 2.032-.307 3.81-1.471 5.14-1.233 1.409-3.186 2.281-5.646 2.524-4.822.475-8.063-1.883-8.479-6.123l-1.653-16.803-3.515.344 1.645 16.798c.766 7.716 7.667 8.549 10.598 8.549.555 0 1.117-.027 1.668-.082 5.47-.538 11.068-3.63 10.375-10.692l-1.656-16.802zm72.776-7.156l2.167 21.966-17.405-20.463-4.182.405 2.554 25.935 3.515-.344-2.122-21.535 17.101 20.062 4.445-.434-2.558-25.942-3.515.35zm-32.393 3.184l-21.54 2.115.262 2.686 9.017-.883 2.26 23.003.025.249 3.515-.348-2.284-23.248 9.009-.891-.264-2.683zm6.778-.667l-3.516.349 2.528 25.688.025.249 3.516-.344-2.528-25.693-.025-.249z"/>
</svg>
