<svg xmlns="http://www.w3.org/2000/svg" viewBox="0 0 72 72">
	<path  fill="#40FF00" d="M36 0c-19.882 0-36 16.118-36 36s16.118 36 36 36 36-16.118 36-36-16.118-36-36-36zM49.5 18c2.485 0 4.5 2.015 4.5 4.5s-2.015 4.5-4.5 4.5-4.5-2.015-4.5-4.5 2.015-4.5 4.5-4.5zM22.5 18c2.485 0 4.5 2.015 4.5 4.5s-2.015 4.5-4.5 4.5-4.5-2.015-4.5-4.5 2.015-4.5 4.5-4.5zM36 58.5c-8.192 0-15.361-4.379-19.296-10.923l5.789-3.473c2.754 4.581 7.772 7.646 13.507 7.646s10.752-3.065 13.507-7.646l5.789 3.473c-3.935 6.544-11.103 10.923-19.296 10.923z"></path>
</svg>
