<svg xmlns="http://www.w3.org/2000/svg" viewBox="0 0 800 800">

	<path fill="#40FF00" d="M400,0.7C179.1,0.7,0,179.8,0,400.7s179.1,400,400,400c220.9,0,400-179.1,400-400S620.9,0.7,400,0.7z M250,300 c-27.6,0-50-22.4-50-50s22.4-50,50-50s50,22.4,50,50S277.6,300,250,300z M474.1,563.9c0,0,0,0-15.9,0 c82.4-134.1-41.5-155.5-41.5-155.5s0.9,144.1,0,182.2c-0.1,3.3-0.3,6.4-0.6,9.4c0.3,2.4,0.5,4.8,0.5,7.3c0,31.9-25.9,57.8-57.8,57.8 S301,639.1,301,607.2c0-31.9,25.9-57.8,57.8-57.8c16.2,0,30.8,6.6,41.3,17.4c0-13.5,0.3-226.1,0.3-250.2h16.3 c0,0-1.5,29.5,12.8,50.4C453,401.2,544.1,427,474.1,563.9z M550,300c-27.6,0-50-22.4-50-50s22.4-50,50-50s50,22.4,50,50 S577.6,300,550,300z"/>
</svg>
